<?xml version="1.0" encoding="utf-8"?>
<!-- Generator: Adobe Illustrator 24.2.0, SVG Export Plug-In . SVG Version: 6.00 Build 0)  -->
<svg version="1.1" id="Layer_1" xmlns="http://www.w3.org/2000/svg" xmlns:xlink="http://www.w3.org/1999/xlink" x="0px" y="0px"
	 viewBox="0 0 600 117" style="enable-background:new 0 0 600 117;" xml:space="preserve">
<style type="text/css">
	.st0{fill:#fff;}
	.st1{fill:#EE313C;}
</style>
<polygon class="st0" points="3.8,113.9 9.4,95.8 20.3,95.8 33.6,35.8 24.3,35.8 21.7,45.9 0.2,45.9 0.2,45.9 7.7,15 22.3,15 
	29.6,15 54.4,15 55.7,15 79.4,15 87.8,15 102,15 95.4,45.9 73.5,45.9 75.4,36.2 66.6,36.2 52,95.8 65.7,95.8 62.1,113.9 "/>
<polygon class="st0" points="118,113.9 113.5,32.8 105,32.8 105,15 137.7,15 142.9,15 159.7,15 159.7,33.6 146.5,33.6 146.5,82.7 
	174.7,32.8 164.9,32.8 164.9,15 215.4,15 155,113.9 "/>
<g>
	<path class="st0" d="M202.1,83.7h18.8v9.8c0,0,0.3,0.7,9.1,0.7c8.9,0,13.6-2.6,13.6-7.9c0-5.6-3.8-8.4-10.4-12.2
		c-7.1-4-21.1-8.6-21.1-27.5c0-19.1,19.3-33.2,49.9-33.2c16.8,0,28.9,3.9,28.9,3.9s-3.4,4.3-5.2,13.2c-1.8,9-2.1,13.8-2.1,13.8
		l-17.8,0.1V37c0,0-4.4-1.8-7-1.8c-4.5,0-12.3,2.1-12.3,7.8c0,2.9,1,6.1,7.5,9.8c6.5,3.7,15.3,6.9,20.6,13.7c4.9,6.3,4,13.6,4,15.2
		c0,2.3-1.1,11.8-11.1,21.4c-5.2,5-12.7,10.1-24.3,12.3c-5.7,1.1-10.1,1.1-16.9,1.1c-24.6,0-31.7-4.6-31.7-4.6L202.1,83.7z"/>
	<path class="st1" d="M335,30.4c0,0,5-5.2,13-5.5s14.8,4.3,17,5.5s9.5,6.1,12.1,7.2c2.6,1,3.4,1.5,7.2,1.5s5.1-0.6,7.7-1.7
		c2.5-1.2,5.5-2.5,11.2-2.5c7.7,0,13.4,2.4,13.4,2.4s-7.8-0.3-18.4,5.3S381.9,52,375.9,52c-6.1,0-10.7-5-15.1-8.7
		c-4.3-3.7-6.8-4.5-7.8-4.9s-2.7-0.7-2.7-0.7s1.4,0,3.5-0.7s3.1-1.3,3.1-1.3s-2.8-3.8-9.8-5C341.5,29.9,335,30.4,335,30.4"/>
	<path class="st1" d="M309.5,109.6l19.6-4.6v4.3c0,0,9.7-0.8,18.8-4.9c9.1-4.1,13.7-8.4,17.7-12.7c4-4.3,5.7-6.5,7.2-8.3
		c1.5-1.9,2.6-3.4,2.6-3.4s6.3-0.7,11.3-5.1s11-14.5,12.8-17.3s4.6-8.9,10.3-12.6c5.7-3.7,11.3-3.7,12.7-3.7
		c12.3,0,23.7,11.7,40.2,11.7c9.6,0,20.4-4.8,27.4-10s10.4-8.2,14.9-12c4.6-3.8,15.8-12,26.2-12c3,0,10.8,0.8,10.8,0.8l6.3-8.1
		l1.5,13.5l20.7,22.4l-3.6,5.1h-13.7v-3.1c0,0-6.2-5-12.8-5s-10.1,4.8-10.1,8.4s3.7,8,10,12.1c7.7,5,21.2,14.3,26.8,18.5
		c5.9,4.3,15.3,11.7,21.2,16.9c9.5,8.3,12,13.6,12,13.6l-18.9-3.1l1.9-3.9c0,0-3.7-3.4-8.4-6.6c-4.1-2.8-9.1-5.4-12.2-6.6
		c-6.7-2.6-14.5-4.8-20.5-5.5s-12.8-1.4-20.9,0.4c-8.1,1.8-12.4,5.6-12.4,5.6l-6.7-5c0,0-11.1,3.8-24.5,3.8c-11,0-22.5-2.7-30-5.3
		c-5.3-1.8-8.5-3.9-8.5-3.9s-7.5,7.8-30.2,7.8c-14.7,0-20.1-0.8-20.1-0.8s-9.3,8.4-22.5,14.5s-22.9,8.8-33.5,8.8
		C319,114.1,309.5,109.6,309.5,109.6"/>
	<path class="st1" d="M541.6,15.7l5.5-5.4c0,0-10.5-10.4-24.6-10.4c-20.6,0-32.7,10.5-32.7,10.5l3.3,3.5c0,0-3.4,1.5-9,5.4
		c-6.7,4.7-9,7.3-9,7.3l8.1-0.8c0,0-4.5,6.2-8.2,9.6s-7,5.2-13.7,6.7c-6.8,1.5-8.4,1.1-8.4,1.1s3.7,1.3,9.4,1.3
		c5.8,0,11.7-0.6,20.8-7.2c9.2-6.6,22.4-16.9,30.5-20.3c8.1-3.4,13.4-3.5,15.3-3.5C539.7,13.4,541.6,15.7,541.6,15.7"/>
</g>
</svg>
